<svg width="1024" height="1024" xmlns="http://www.w3.org/2000/svg" p-id="11371" version="1.1" class="icon" t="1704944836066">

 <g>
  <title>Layer 1</title>
  <path id="svg_1" p-id="11372" d="m121.49152,381.83051m-52.06779,0a52.0678,52.0678 0 1 0 104.13559,0a52.0678,52.0678 0 1 0 -104.13559,0z"/>
  <path id="svg_2" p-id="11373" d="m512,208.27119m-52.0678,0a52.0678,52.0678 0 1 0 104.1356,0a52.0678,52.0678 0 1 0 -104.1356,0z"/>
  <path id="svg_3" p-id="11374" d="m277.69491,208.27119m-43.38983,0a43.38983,43.38983 0 1 0 86.77967,0a43.38983,43.38983 0 1 0 -86.77967,0z"/>
  <path id="svg_4" p-id="11375" d="m746.30508,216.94915m-43.38983,0a43.38983,43.38983 0 1 0 86.77967,0a43.38983,43.38983 0 1 0 -86.77967,0z"/>
  <path id="svg_5" p-id="11376" d="m911.18644,190.91525m-34.71186,0a34.71186,34.71186 0 1 0 69.42372,0a34.71186,34.71186 0 1 0 -69.42372,0z"/>
  <path id="svg_6" p-id="11377" d="m104.13559,199.59322m-34.71186,0a34.71186,34.71186 0 1 0 69.42373,0a34.71186,34.71186 0 1 0 -69.42373,0z"/>
  <path id="svg_7" p-id="11378" d="m512,34.71186m-34.71186,0a34.71186,34.71186 0 1 0 69.42372,0a34.71186,34.71186 0 1 0 -69.42372,0z"/>
  <path id="svg_8" p-id="11379" d="m329.76271,60.74576m-26.0339,0a26.0339,26.0339 0 1 0 52.0678,0a26.0339,26.0339 0 1 0 -52.0678,0z"/>
  <path id="svg_9" p-id="11380" d="m676.88136,86.77966m-26.0339,0a26.0339,26.0339 0 1 0 52.06779,0a26.0339,26.0339 0 1 0 -52.06779,0z"/>
  <path id="svg_10" p-id="11381" d="m911.18644,373.15254m-52.0678,0a52.0678,52.0678 0 1 0 104.1356,0a52.0678,52.0678 0 1 0 -104.1356,0z"/>
  <path id="svg_11" p-id="11382" d="m850.44068,491.69356a208.27119,208.27119 0 0 0 -329.76271,-157.50509a208.27119,208.27119 0 0 0 -328.9817,151.77763a216.94915,216.94915 0 0 0 59.96475,425.22034a212.52339,212.52339 0 0 0 26.98847,-1.73559a295.05085,295.05085 0 0 0 466.70102,0a212.52339,212.52339 0 0 0 26.98847,1.73559a216.94915,216.94915 0 0 0 78.1017,-419.49288zm-78.1017,332.71322a136.15729,136.15729 0 0 1 -16.31457,-1.04136a74.71729,74.71729 0 0 0 -10.76068,-0.69423a86.77966,86.77966 0 0 0 -68.38237,33.6705a208.27119,208.27119 0 0 1 -329.76272,0a86.77966,86.77966 0 0 0 -68.55593,-33.6705a74.71729,74.71729 0 0 0 -10.76068,0.69423a136.15729,136.15729 0 0 1 -16.14101,1.04136a130.16949,130.16949 0 0 1 -36.01356,-255.21898a86.77966,86.77966 0 0 0 62.56813,-76.19255a122.0122,122.0122 0 0 1 120.97085,-111.16474a120.45017,120.45017 0 0 1 70.8122,22.82305a86.77966,86.77966 0 0 0 101.35865,0a121.49152,121.49152 0 0 1 192.30373,91.81288a86.77966,86.77966 0 0 0 55.27864,76.27932a130.16949,130.16949 0 0 1 -46.60068,251.66102z"/>
  <path stroke="null" id="svg_12" p-id="11383" d="m785.09085,764.90847c2.08271,-1.73559 6.33491,-4.77288 12.58305,-8.67796a82.3539,82.3539 0 0 0 21.78169,-20.39322a35.75322,35.75322 0 0 0 5.9878,-19.52543a30.2861,30.2861 0 0 0 -5.20678,-17.35593a30.89356,30.89356 0 0 0 -14.40542,-11.45491a68.81627,68.81627 0 0 0 -25.51322,-3.73153a62.56814,62.56814 0 0 0 -24.55865,3.90509a30.72,30.72 0 0 0 -13.79796,11.28135a49.81153,49.81153 0 0 0 -6.68204,19.95932l31.06712,2.51661a22.90983,22.90983 0 0 1 5.12,-13.1905a14.31864,14.31864 0 0 1 19.17831,0a11.5417,11.5417 0 0 1 3.8183,8.67796a17.35593,17.35593 0 0 1 -3.8183,9.97966a87.56068,87.56068 0 0 1 -17.35594,15.44678a128.34712,128.34712 0 0 0 -30.54644,28.63729a58.40271,58.40271 0 0 0 -9.8061,26.0339l93.11458,0l0,-25.33966l-48.42305,0c2.86373,-2.77695 5.03322,-5.03322 7.46305,-6.76881l0,-0.00001zm-360.30915,-40.17898a45.03864,45.03864 0 0 1 -30.98034,11.5417a49.72475,49.72475 0 0 1 -39.65831,-17.96339c-10.15322,-11.9756 -15.18644,-32.19526 -15.18644,-60.74577q0,-39.91864 15.44678,-57.88203a50.85288,50.85288 0 0 1 40.35254,-17.78983a46.25356,46.25356 0 0 1 47.12136,37.48881l44.69152,-10.6739a87.73424,87.73424 0 0 0 -22.82305,-41.13356a92.85424,92.85424 0 0 0 -66.73356,-24.2983a98.75525,98.75525 0 0 0 -75.75864,30.89356q-28.89763,30.89356 -28.89763,86.77966q0,52.84881 28.72407,83.2217a96.15186,96.15186 0 0 0 73.24203,30.45966a95.45763,95.45763 0 0 0 59.35729,-17.35594a97.7139,97.7139 0 0 0 33.93085,-54.5844l-43.38983,-13.88475a66.64678,66.64678 0 0 1 -19.43865,35.92678l0.00001,0zm184.31999,-181.19593a123.05356,123.05356 0 0 0 -48.24949,8.67796a86.77966,86.77966 0 0 0 -28.89762,20.13289a106.39186,106.39186 0 0 0 -20.82712,30.63322a143.44678,143.44678 0 0 0 -10.24,57.36135c0,35.66644 9.8061,63.52271 29.50508,83.82916a105.09017,105.09017 0 0 0 79.31661,30.45966a104.65627,104.65627 0 0 0 78.70915,-30.54644q29.41831,-30.63322 29.41831,-84.78373t-29.67864,-85.30441a105.17695,105.17695 0 0 0 -79.05628,-30.45966zm44.69153,173.55932a60.22508,60.22508 0 0 1 -88.77559,0q-17.35594,-19.52542 -17.35594,-57.53491c0,-26.0339 5.72746,-44.95187 17.35594,-57.79526a62.56814,62.56814 0 0 1 89.81695,0q16.57491,18.22373 16.57491,56.40678t-17.35593,58.57627l-0.26034,0.34712z"/>
  <rect fill="#ffffff" id="svg_13" height="140" width="111" y="661.40001" x="718.99998" stroke="null"/>
 </g>
</svg>