<svg width="1024" height="1024" xmlns="http://www.w3.org/2000/svg" p-id="11371" version="1.1" class="icon" t="1704944836066">

 <g>
  <title>Layer 1</title>
    <path fill="7f7f7f"  id="svg_1" p-id="11372" d="m121.49152,381.83051m-52.06779,0a52.0678,52.0678 0 1 0 104.13559,0a52.0678,52.0678 0 1 0 -104.13559,0z"/>
	   <path fill="7f7f7f"    id="svg_2" p-id="11373" d="m512,208.27119m-52.0678,0a52.0678,52.0678 0 1 0 104.1356,0a52.0678,52.0678 0 1 0 -104.1356,0z"/>
	   <path fill="7f7f7f"  id="svg_3" p-id="11374" d="m277.69491,208.27119m-43.38983,0a43.38983,43.38983 0 1 0 86.77967,0a43.38983,43.38983 0 1 0 -86.77967,0z"/>
	   <path fill="7f7f7f"  id="svg_4" p-id="11375" d="m746.30508,216.94915m-43.38983,0a43.38983,43.38983 0 1 0 86.77967,0a43.38983,43.38983 0 1 0 -86.77967,0z"/>
    <path fill="7f7f7f"  id="svg_5" p-id="11376" d="m911.18644,190.91525m-34.71186,0a34.71186,34.71186 0 1 0 69.42372,0a34.71186,34.71186 0 1 0 -69.42372,0z"/>
    <path fill="7f7f7f"  id="svg_6" p-id="11377" d="m104.13559,199.59322m-34.71186,0a34.71186,34.71186 0 1 0 69.42373,0a34.71186,34.71186 0 1 0 -69.42373,0z"/>
    <path fill="7f7f7f"  id="svg_7" p-id="11378" d="m512,34.71186m-34.71186,0a34.71186,34.71186 0 1 0 69.42372,0a34.71186,34.71186 0 1 0 -69.42372,0z"/>
    <path fill="7f7f7f"  id="svg_8" p-id="11379" d="m329.76271,60.74576m-26.0339,0a26.0339,26.0339 0 1 0 52.0678,0a26.0339,26.0339 0 1 0 -52.0678,0z"/>
    <path fill="7f7f7f"  id="svg_9" p-id="11380" d="m676.88136,86.77966m-26.0339,0a26.0339,26.0339 0 1 0 52.06779,0a26.0339,26.0339 0 1 0 -52.06779,0z"/>
    <path fill="7f7f7f"  id="svg_10" p-id="11381" d="m911.18644,373.15254m-52.0678,0a52.0678,52.0678 0 1 0 104.1356,0a52.0678,52.0678 0 1 0 -104.1356,0z"/>
      <path fill="7f7f7f"  id="svg_11" p-id="11382" d="m850.44068,491.69356a208.27119,208.27119 0 0 0 -329.76271,-157.50509a208.27119,208.27119 0 0 0 -328.9817,151.77763a216.94915,216.94915 0 0 0 59.96475,425.22034a212.52339,212.52339 0 0 0 26.98847,-1.73559a295.05085,295.05085 0 0 0 466.70102,0a212.52339,212.52339 0 0 0 26.98847,1.73559a216.94915,216.94915 0 0 0 78.1017,-419.49288zm-78.1017,332.71322a136.15729,136.15729 0 0 1 -16.31457,-1.04136a74.71729,74.71729 0 0 0 -10.76068,-0.69423a86.77966,86.77966 0 0 0 -68.38237,33.6705a208.27119,208.27119 0 0 1 -329.76272,0a86.77966,86.77966 0 0 0 -68.55593,-33.6705a74.71729,74.71729 0 0 0 -10.76068,0.69423a136.15729,136.15729 0 0 1 -16.14101,1.04136a130.16949,130.16949 0 0 1 -36.01356,-255.21898a86.77966,86.77966 0 0 0 62.56813,-76.19255a122.0122,122.0122 0 0 1 120.97085,-111.16474a120.45017,120.45017 0 0 1 70.8122,22.82305a86.77966,86.77966 0 0 0 101.35865,0a121.49152,121.49152 0 0 1 192.30373,91.81288a86.77966,86.77966 0 0 0 55.27864,76.27932a130.16949,130.16949 0 0 1 -46.60068,251.66102z"/>
  <g stroke="null">
     <path fill="7f7f7f"  stroke="null" p-id="9131"  d="m432.8303,575.41225a29.91096,24.93032 0 0 0 -29.10255,-12.80206a29.10255,24.25653 0 0 0 -19.13223,5.16574a41.49809,34.58802 0 0 0 -11.8566,16.84481a171.92064,143.29321 0 0 0 -5.9283,30.54526c-1.07787,12.57746 -1.61681,28.00731 -1.61681,46.26709a538.93618,449.19502 0 0 0 2.42521,47.16548c0.88924,9.52293 3.3414,18.88865 7.27564,27.85009c2.20964,5.48018 6.57502,10.15181 12.39553,13.25125c5.38936,2.35827 11.42545,3.52618 17.51543,3.36896c5.22768,0.08984 10.45536,-0.67379 15.35968,-2.24598a26.94681,22.45975 0 0 0 12.39553,-9.4331a73.29532,61.09052 0 0 0 8.08404,-19.76458a217.19128,181.02559 0 0 0 2.96415,-33.68963l61.97766,0a275.93533,229.98785 0 0 1 -3.77255,39.52916a107.78724,89.839 0 0 1 -14.55128,32.79124a71.94798,59.96754 0 0 1 -29.64149,22.45975a112.63766,93.88176 0 0 1 -49.8516,7.86091a117.21862,97.69992 0 0 1 -55.51043,-9.4331a75.72053,63.1119 0 0 1 -31.79723,-26.9517a142.27915,118.58749 0 0 1 -14.28181,-41.99973a646.72342,539.03403 0 0 1 0,-107.58221a142.54862,118.81208 0 0 1 14.28181,-42.22433a80.84043,67.37925 0 0 1 31.79723,-27.4009a111.82926,93.20797 0 0 1 55.51043,-9.88229a107.78724,89.839 0 0 1 52.27681,8.9839c11.8027,5.1882 21.66523,12.95928 28.56362,22.45975c6.30555,9.2085 10.32063,19.36031 11.8566,29.87147c1.53597,9.99459 2.34437,20.0341 2.42521,30.09607l-61.97766,0a111.82926,93.20797 0 0 0 -8.08404,-41.10134zm104.82309,28.74848a142.54862,118.81208 0 0 1 14.28181,-42.22433a80.84043,67.37925 0 0 1 31.79723,-27.4009a136.35085,113.64634 0 0 1 111.29032,0a80.84043,67.37925 0 0 1 31.79723,27.4009a143.08756,119.26128 0 0 1 14.28181,42.22433a646.72342,539.03403 0 0 1 0,107.58221a142.81809,119.03668 0 0 1 -14.28181,41.99973a75.45107,62.8873 0 0 1 -31.79723,26.9517a143.62649,119.71047 0 0 1 -111.29032,0a75.72053,63.1119 0 0 1 -31.79723,-26.9517a142.27915,118.58749 0 0 1 -14.28181,-41.99973a646.72342,539.03403 0 0 1 0,-107.58221zm60.36085,97.69992c0.53894,9.99459 2.533,19.85442 5.9283,29.42227c2.15574,6.51333 6.65586,12.35286 12.93447,16.62022a42.57596,35.48641 0 0 0 44.46224,0c6.25166,-4.26735 10.77872,-10.10689 12.93447,-16.62022c3.42224,-9.54539 5.38936,-19.42768 5.9283,-29.42227c1.07787,-12.12827 1.61681,-27.08646 1.61681,-44.9195c0,-17.81058 -0.53894,-32.79124 -1.61681,-44.9195a148.74639,123.97783 0 0 0 -5.9283,-29.42227a39.34234,32.79124 0 0 0 -12.93447,-16.62022a42.57596,35.48641 0 0 0 -44.46224,0c-6.27861,4.31227 -10.77872,10.10689 -12.93447,16.62022a150.09373,125.10081 0 0 0 -5.9283,29.42227c-1.07787,11.99351 -1.61681,26.9517 -1.61681,44.9195s0.53894,32.94845 1.61681,44.9195z"/>
  </g>
 </g>
</svg>