<svg width="1024" height="1024" xmlns="http://www.w3.org/2000/svg" p-id="11371" version="1.1" class="icon" t="1704944836066">

 <g>
  <title>Layer 1</title>
  <path fill="7f7f7f" id="svg_1" p-id="11372" d="m121.49152,381.83051m-52.06779,0a52.0678,52.0678 0 1 0 104.13559,0a52.0678,52.0678 0 1 0 -104.13559,0z"/>
  <path fill="7f7f7f" id="svg_2" p-id="11373" d="m512,208.27119m-52.0678,0a52.0678,52.0678 0 1 0 104.1356,0a52.0678,52.0678 0 1 0 -104.1356,0z"/>
  <path fill="7f7f7f" id="svg_3" p-id="11374" d="m277.69491,208.27119m-43.38983,0a43.38983,43.38983 0 1 0 86.77967,0a43.38983,43.38983 0 1 0 -86.77967,0z"/>
  <path fill="7f7f7f" id="svg_4" p-id="11375" d="m746.30508,216.94915m-43.38983,0a43.38983,43.38983 0 1 0 86.77967,0a43.38983,43.38983 0 1 0 -86.77967,0z"/>
  <path fill="7f7f7f" id="svg_5" p-id="11376" d="m911.18644,190.91525m-34.71186,0a34.71186,34.71186 0 1 0 69.42372,0a34.71186,34.71186 0 1 0 -69.42372,0z"/>
  <path fill="7f7f7f" id="svg_6" p-id="11377" d="m104.13559,199.59322m-34.71186,0a34.71186,34.71186 0 1 0 69.42373,0a34.71186,34.71186 0 1 0 -69.42373,0z"/>
  <path fill="7f7f7f" id="svg_7" p-id="11378" d="m512,34.71186m-34.71186,0a34.71186,34.71186 0 1 0 69.42372,0a34.71186,34.71186 0 1 0 -69.42372,0z"/>
  <path fill="7f7f7f" id="svg_8" p-id="11379" d="m329.76271,60.74576m-26.0339,0a26.0339,26.0339 0 1 0 52.0678,0a26.0339,26.0339 0 1 0 -52.0678,0z"/>
  <path fill="7f7f7f" id="svg_9" p-id="11380" d="m676.88136,86.77966m-26.0339,0a26.0339,26.0339 0 1 0 52.06779,0a26.0339,26.0339 0 1 0 -52.06779,0z"/>
  <path fill="7f7f7f" id="svg_10" p-id="11381" d="m911.18644,373.15254m-52.0678,0a52.0678,52.0678 0 1 0 104.1356,0a52.0678,52.0678 0 1 0 -104.1356,0z"/>
  <path fill="7f7f7f" id="svg_11" p-id="11382" d="m850.44068,491.69356a208.27119,208.27119 0 0 0 -329.76271,-157.50509a208.27119,208.27119 0 0 0 -328.9817,151.77763a216.94915,216.94915 0 0 0 59.96475,425.22034a212.52339,212.52339 0 0 0 26.98847,-1.73559a295.05085,295.05085 0 0 0 466.70102,0a212.52339,212.52339 0 0 0 26.98847,1.73559a216.94915,216.94915 0 0 0 78.1017,-419.49288zm-78.1017,332.71322a136.15729,136.15729 0 0 1 -16.31457,-1.04136a74.71729,74.71729 0 0 0 -10.76068,-0.69423a86.77966,86.77966 0 0 0 -68.38237,33.6705a208.27119,208.27119 0 0 1 -329.76272,0a86.77966,86.77966 0 0 0 -68.55593,-33.6705a74.71729,74.71729 0 0 0 -10.76068,0.69423a136.15729,136.15729 0 0 1 -16.14101,1.04136a130.16949,130.16949 0 0 1 -36.01356,-255.21898a86.77966,86.77966 0 0 0 62.56813,-76.19255a122.0122,122.0122 0 0 1 120.97085,-111.16474a120.45017,120.45017 0 0 1 70.8122,22.82305a86.77966,86.77966 0 0 0 101.35865,0a121.49152,121.49152 0 0 1 192.30373,91.81288a86.77966,86.77966 0 0 0 55.27864,76.27932a130.16949,130.16949 0 0 1 -46.60068,251.66102z"/>
  <text transform="matrix(14.9212 0 0 13.5976 -6464.08 -7202.03)" stroke="null" xml:space="preserve" text-anchor="start" font-family="Noto Sans JP" font-size="24" stroke-width="0" fill="#7f7f7f" id="svg_14" y="586.4615" x="452.61533">O</text>
  <text transform="matrix(8.86168 0 0 4.78518 -4565.14 -2493.86)" stroke="null" xml:space="preserve" text-anchor="start" font-family="Noto Sans JP" font-size="24" stroke-width="0" fill="#7f7f7f" id="svg_15" y="682.61534" x="580.82044">3</text>
 </g>
</svg>