<?xml version="1.0" standalone="no"?><!DOCTYPE svg PUBLIC "-//W3C//DTD SVG 1.1//EN" "http://www.w3.org/Graphics/SVG/1.1/DTD/svg11.dtd"><svg t="1703867283380" class="icon" viewBox="0 0 1024 1024" version="1.1" xmlns="http://www.w3.org/2000/svg" p-id="9483" xmlns:xlink="http://www.w3.org/1999/xlink" width="200" height="200"><path d="M916.8384 541.9008a40.0896 40.0896 0 0 0-52.0704-19.0976c-27.8016 12.288-70.656 29.184-119.8592 40.9088-76.1344 18.176-184.3712 27.9552-267.8272-28.9792-109.1584-74.4448-210.6368-65.5872-276.5312-45.056a357.7344 357.7344 0 0 0-77.9776 35.2768 43.264 43.264 0 0 0-10.3424 64.0512 39.7824 39.7824 0 0 0 51.5072 9.0624 277.504 277.504 0 0 1 63.0784-28.16c70.7072-21.1456 139.776-9.1136 205.4144 35.584 48.4352 33.024 105.7792 51.968 170.5984 56.32 9.5744 0.6144 19.3536 0.9216 29.3376 0.9216 41.8304 0 86.528-5.632 132.9664-16.9472a788.5824 788.5824 0 0 0 131.6864-45.056c21.9648-9.728 31.232-36.9152 20.0192-58.88zM224.4096 246.528c5.7856 5.9904 13.056 10.24 20.992 12.4416a45.5168 45.5168 0 0 0 45.1584-12.4416 49.408 49.408 0 0 0 0-67.9936 45.5168 45.5168 0 0 0-66.1504 0 49.408 49.408 0 0 0 0 67.9936z m188.1088 161.9456c5.7856 5.9392 13.0048 10.24 20.992 12.4416a45.5168 45.5168 0 0 0 45.1072-12.4416 49.408 49.408 0 0 0 0-67.9936 45.5168 45.5168 0 0 0-66.1504 0 49.408 49.408 0 0 0 0 67.9936zM803.84 239.9232a45.5168 45.5168 0 0 0 66.0992 0 49.408 49.408 0 0 0 0-67.9936 45.5168 45.5168 0 0 0-66.0992 0 49.408 49.408 0 0 0 0 67.9936z m27.0336 175.7696c0 20.736 16.384 37.5296 36.5056 37.5296a37.0176 37.0176 0 0 0 36.5056-37.5296 37.0176 37.0176 0 0 0-36.5056-37.5808 37.0176 37.0176 0 0 0-36.5056 37.5808z m-240.8448-131.1744a38.4 38.4 0 0 0 4.9152 18.7392 37.0688 37.0688 0 0 0 13.312 13.7728 35.7376 35.7376 0 0 0 49.92-13.7728 38.4 38.4 0 0 0-13.3632-51.3024 35.7376 35.7376 0 0 0-49.8688 13.7728 38.4 38.4 0 0 0-4.9152 18.7904z m47.2064 181.248a57.856 57.856 0 0 0 57.4464 15.872c10.1376-2.816 19.3024-8.2432 26.6752-15.872 7.424-7.5776 12.6976-17.0496 15.4112-27.392a62.8736 62.8736 0 0 0 0-31.6928 61.5424 61.5424 0 0 0-15.36-27.392 59.136 59.136 0 0 0-26.6752-15.872 57.856 57.856 0 0 0-30.8224 0c-10.0864 2.816-19.2512 8.2944-26.624 15.872a62.8224 62.8224 0 0 0 0 86.528zM117.248 376.6272c0 37.376 29.4912 67.7376 65.8432 67.7376 36.4032 0 65.8944-30.3104 65.8944-67.7376 0-37.376-29.4912-67.7376-65.8432-67.7376-36.4032 0-65.8944 30.3104-65.8944 67.7376z m299.6736-206.4896c0 37.4272 29.4912 67.7888 65.8944 67.7888 36.352 0 65.8432-30.3616 65.8432-67.7888 0-24.1664-12.544-46.592-32.9216-58.6752a64.512 64.512 0 0 0-65.8944 0 66.8672 66.8672 0 0 0-24.064 24.832c-5.8368 10.24-8.8576 22.016-8.8576 33.8432z m-168.448 550.4c-14.0288-10.0864-33.5872-15.2064-58.3168-15.2064H116.224v212.3264h56.576v-67.2768h18.432c23.04 0 42.9568-6.144 57.4976-17.6128 16.384-13.0048 24.9856-32.5632 24.9856-56.576 0-24.9344-8.4992-43.6736-25.2416-55.7056z m-59.5968 82.1248h-16.0768v-49.152h14.6944c27.1872 0 30.9248 10.9056 30.9248 22.784 0.1024 17.7152-9.5744 26.368-29.5424 26.368z m215.04-6.4v0.1024c-1.7408 5.5296-3.3792 11.4688-5.0176 17.1008l-2.048 7.168-0.4096-1.5872a386.0992 386.0992 0 0 0-6.912-22.8864l-32.3584-90.8288H298.1888v212.3264H349.696v-74.1376c0-9.1648-0.7168-20.3776-1.8432-31.744l3.7888 11.4688 27.904 77.312h32.256l27.648-77.312 4.5056-13.2608c-1.3824 13.7216-2.048 24.832-2.048 33.4848v74.1888h52.3776v-212.3264H435.0464l-31.1808 90.9312z m199.5776 72.448c26.624-29.0816 52.1728-61.8496 52.1728-93.5424 0-20.1216-6.656-37.376-19.456-49.7664-12.4928-12.288-29.696-18.6368-49.7664-18.6368-27.6992 0-46.8992 9.216-68.7104 32.768l-3.072 3.3792 32.1024 32.6144 3.2256-3.2768c9.3184-9.5744 18.6368-18.2784 30.0544-18.2784 13.824 0 21.1456 8.2944 21.1456 23.9104 0 26.2656-37.4784 62.208-80.896 103.936l-1.4336 1.3824v34.56h145.8688v-50.2784h-40.96c-5.8368 0-13.2096 0.512-20.2752 1.2288z m116.6848-16.7424c-18.5856 0-32.6656 14.848-32.6656 34.6112 0 19.968 13.9776 34.9184 32.6656 34.9184 18.2784 0 32.6656-15.36 32.6656-34.9184 0-19.7632-14.0288-34.6112-32.6656-34.6112z m177.8688-54.4768c-11.7248-10.5472-27.648-16.128-46.1824-16.128a52.736 52.736 0 0 0-15.2064 1.9968l1.8944-22.784h70.5536v-49.9712h-119.6544l-5.4272 107.6736 25.344 16.9984 2.4576-1.536c11.264-7.3728 15.6672-9.3696 25.344-9.3696 15.2064 0 24.2688 9.1648 24.2688 24.4736 0 19.968-14.336 24.2176-26.4192 24.2176-12.544 0-25.1904-6.144-37.376-18.0736l-3.7376-3.6864-26.8288 38.0928 2.8672 2.8672c19.3024 19.456 43.52 29.3376 72.0896 29.3376a77.824 77.824 0 0 0 52.8896-19.456c15.0016-13.6704 22.9888-32.5632 22.9888-54.6816-0.1024-21.0944-6.8608-38.2976-19.8656-49.9712z" p-id="9484"></path></svg>