<?xml version="1.0" standalone="no"?><!DOCTYPE svg PUBLIC "-//W3C//DTD SVG 1.1//EN" "http://www.w3.org/Graphics/SVG/1.1/DTD/svg11.dtd"><svg t="1704113410296" class="icon" viewBox="0 0 1024 1024" version="1.1" xmlns="http://www.w3.org/2000/svg" p-id="1053" xmlns:xlink="http://www.w3.org/1999/xlink" width="200" height="200"><path d="M512 423.253333c17.749333 0 32.085333-15.701333 32.085333-34.816V240.981333l-4.096-59.392 29.354667 33.450667 49.834667 49.834667c6.144 5.461333 13.653333 8.874667 21.845333 8.874666 15.701333 0 27.306667-10.922667 27.306667-26.624 0-8.192-2.730667-14.336-9.557334-21.162666L533.845333 112.64c-8.192-7.509333-14.336-10.24-21.845333-10.24-7.509333 0-12.970667 2.730667-21.845333 10.24L365.909333 226.645333c-6.826667 6.144-9.557333 12.288-9.557333 20.48 0 15.701333 10.922667 26.624 27.306667 26.624 7.509333 0 15.701333-3.413333 21.162666-8.874666l53.930667-53.248 25.258667-29.354667-4.778667 58.709333v146.773334c0 19.797333 15.701333 35.498667 32.768 35.498666z m206.165333 107.178667c12.970667 12.288 34.133333 12.288 48.469334-2.048l69.632-68.266667c15.018667-14.336 14.336-34.816 1.365333-47.104a33.655467 33.655467 0 0 0-47.786667 1.365334l-69.632 68.266666c-14.336 15.018667-14.336 36.181333-2.048 47.786667z m-412.330666 0c12.288-12.288 12.288-32.768-2.730667-47.786667l-69.632-68.266666c-15.018667-14.336-35.498667-13.653333-47.786667-1.365334-12.288 12.288-12.288 32.768 2.730667 47.104l69.632 68.266667c14.336 14.336 35.498667 15.018667 47.786667 2.048zM34.816 921.6h954.368c19.114667 0 34.816-14.336 34.816-32.085333 0-17.066667-15.701333-31.402667-34.816-31.402667h-300.373333c27.306667-36.181333 41.642667-79.872 41.642666-124.928 0-118.101333-99.669333-215.722667-218.453333-215.722667-119.466667 0-218.453333 97.621333-218.453333 215.722667 0 47.104 15.018667 89.429333 41.642666 124.928H34.816c-19.114667 0-34.816 14.336-34.816 31.402667 0 17.749333 15.701333 32.085333 34.816 32.085333z m322.901333-187.733333c0-83.285333 69.632-151.552 154.282667-151.552s154.282667 68.266667 154.282667 151.552c0 50.517333-25.941333 96.938667-68.266667 124.928H425.984c-42.325333-28.672-68.266667-75.093333-68.266667-124.928z m-271.018666 21.845333h98.304c20.48 0 36.181333-14.336 36.181333-32.085333-0.682667-17.749333-15.018667-32.085333-36.181333-32.085334H86.698667c-20.48 0-35.498667 14.336-35.498667 32.085334s15.018667 32.085333 35.498667 32.085333z m752.981333 0h98.304c20.48 0 35.498667-14.336 35.498667-32.085333s-15.018667-32.085333-35.498667-32.085334H839.68c-20.48 0-36.181333 14.336-36.181333 32.085334 0.682667 17.749333 15.018667 32.085333 36.181333 32.085333z" fill="#2c2c2c" p-id="1054"></path></svg>