<?xml version="1.0" standalone="no"?>
<!DOCTYPE svg PUBLIC "-//W3C//DTD SVG 1.1//EN" "http://www.w3.org/Graphics/SVG/1.1/DTD/svg11.dtd">
<svg t="1704113414694" class="icon" viewBox="0 0 1024 1024" version="1.1" xmlns="http://www.w3.org/2000/svg" p-id="1255" xmlns:xlink="http://www.w3.org/1999/xlink" width="200" height="200">
	<path d="M512 423.253333c7.509333 0 12.970667-2.730667 21.845333-10.24l124.928-114.688c6.826667-6.144 9.557333-12.288 9.557334-21.162666a25.941333 25.941333 0 0 0-27.306667-26.624c-8.192 0-15.701333 3.413333-21.845333 8.874666l-49.834667 50.517334-29.354667 34.133333 4.778667-59.392V137.216c0-19.114667-15.018667-34.816-32.085333-34.816-17.749333 0-32.768 15.018667-32.768 34.816v147.456l4.778666 59.392-25.941333-30.037333-53.930667-53.930667a31.197867 31.197867 0 0 0-21.162666-8.874667c-15.701333 0-27.306667 10.922667-27.306667 26.624 0 8.192 2.730667 14.336 9.557333 21.162667l124.928 114.688c8.192 6.826667 13.653333 9.557333 21.162667 9.557333z m206.165333 107.178667c12.970667 12.288 34.133333 12.288 48.469334-2.048l69.632-68.266667c15.018667-14.336 14.336-34.816 1.365333-47.104a33.655467 33.655467 0 0 0-47.786667 1.365334l-69.632 68.266666c-14.336 15.018667-15.018667 36.181333-2.048 47.786667z m-460.8-1.365333c15.018667 13.653333 36.181333 14.336 48.469334 1.365333 12.288-12.288 12.288-32.768-2.730667-47.786667l-69.632-68.266666c-15.018667-14.336-35.498667-13.653333-47.786667-1.365334-12.288 12.288-12.288 32.768 2.048 47.104l69.632 68.949334zM34.816 921.6h954.368c19.114667 0 34.816-14.336 34.816-32.085333 0-17.066667-15.701333-31.402667-34.816-31.402667h-300.373333c27.306667-36.181333 41.642667-79.872 41.642666-124.928 0-118.101333-99.669333-215.722667-218.453333-215.722667-119.466667 0-218.453333 97.621333-218.453333 215.722667 0 47.104 15.018667 89.429333 41.642666 124.928H34.816c-19.114667 0-34.816 14.336-34.816 31.402667 0 17.749333 15.701333 32.085333 34.816 32.085333z m322.901333-187.733333c0-83.285333 69.632-151.552 154.282667-151.552s154.282667 68.266667 154.282667 151.552c0 50.517333-25.941333 96.938667-68.266667 124.928H425.984c-42.325333-28.672-68.266667-75.093333-68.266667-124.928z m-271.018666 21.845333h98.304c20.48 0 36.181333-14.336 36.181333-32.085333-0.682667-17.749333-15.018667-32.085333-36.181333-32.085334H86.698667c-20.48 0-35.498667 14.336-35.498667 32.085334s14.336 32.085333 35.498667 32.085333z m752.298666 0h98.304c20.48 0 35.498667-14.336 35.498667-32.085333s-15.018667-32.085333-35.498667-32.085334h-98.304c-20.48 0-36.181333 14.336-36.181333 32.085334 0.682667 17.749333 15.701333 32.085333 36.181333 32.085333z" fill="#7f7f7f" p-id="1256"></path>
</svg>