<?xml version="1.0" standalone="no"?>
<!DOCTYPE svg PUBLIC "-//W3C//DTD SVG 1.1//EN" "http://www.w3.org/Graphics/SVG/1.1/DTD/svg11.dtd">
<svg t="1703996062424" class="icon" viewBox="0 0 1450 1024" version="1.1" xmlns="http://www.w3.org/2000/svg" p-id="5833" xmlns:xlink="http://www.w3.org/1999/xlink" width="283.203125" height="200">
	<path d="M725.333333 247.466667c-136.533333 0-247.466667 119.466667-247.466666 256 0 145.066667 110.933333 256 247.466666 256 136.533333 0 247.466667-119.466667 247.466667-256 0-145.066667-110.933333-256-247.466667-256m0 640c-264.533333 0-494.933333-162.133333-597.333333-392.533334 102.4-230.4 332.8-384 597.333333-384s494.933333 162.133333 597.333334 384c-102.4 238.933333-332.8 392.533333-597.333334 392.533334M725.333333 0C401.066667 0 119.466667 204.8 0 503.466667c119.466667 290.133333 401.066667 503.466667 725.333333 503.466666s605.866667-204.8 725.333334-503.466666C1331.2 204.8 1049.6 0 725.333333 0" fill="#2c2c2c" p-id="5834"></path>
</svg>